<svg width="77" height="77" viewBox="0 0 77 77" fill="none" xmlns="http://www.w3.org/2000/svg">
<path d="M62.333 33.1519V62.333C62.333 64.2405 61.5753 66.0699 60.2264 67.4187C58.8776 68.7675 57.0482 69.5253 55.1407 69.5253H21.5768C19.6693 69.5253 17.8399 68.7675 16.4911 67.4187C15.1423 66.0699 14.3845 64.2405 14.3845 62.333V14.3845C14.3845 12.477 15.1423 10.6476 16.4911 9.29883C17.8399 7.95002 19.6693 7.19226 21.5768 7.19226H36.3734C37.6446 7.19245 38.8638 7.69746 39.7628 8.59625L60.929 29.7625C61.8278 30.6615 62.3328 31.8806 62.333 33.1519Z" stroke="white" stroke-width="3" stroke-linejoin="round"/>
<path d="M38.3588 8.39099V26.3717C38.3588 27.6433 38.8639 28.8629 39.7631 29.7621C40.6624 30.6613 41.8819 31.1665 43.1536 31.1665H61.1343" stroke="white" stroke-width="3" stroke-linecap="round" stroke-linejoin="round"/>
</svg>
