<svg width="78" height="77" viewBox="0 0 78 77" fill="none" xmlns="http://www.w3.org/2000/svg">
<path d="M62.9742 33.2931V62.4742C62.9742 64.3817 62.2165 66.2111 60.8677 67.5599C59.5189 68.9087 57.6895 69.6665 55.782 69.6665H22.2181C20.3105 69.6665 18.4812 68.9087 17.1324 67.5599C15.7835 66.2111 15.0258 64.3817 15.0258 62.4742V14.5258C15.0258 12.6183 15.7835 10.7889 17.1324 9.44006C18.4812 8.09125 20.3105 7.3335 22.2181 7.3335H37.0146C38.2859 7.33369 39.505 7.83869 40.404 8.73749L61.5703 29.9037C62.469 30.8027 62.9741 32.0219 62.9742 33.2931Z" stroke="black" stroke-width="3" stroke-linejoin="round"/>
<path d="M39 8.53223V26.5129C39 27.7846 39.5052 29.0042 40.4044 29.9034C41.3036 30.8026 42.5232 31.3077 43.7948 31.3077H61.7755" stroke="black" stroke-width="3" stroke-linecap="round" stroke-linejoin="round"/>
</svg>
