<svg width="81" height="80" viewBox="0 0 81 80" fill="none" xmlns="http://www.w3.org/2000/svg">
<path d="M10.5 30V18.75C10.5 17.0924 11.1585 15.5027 12.3306 14.3306C13.5027 13.1585 15.0924 12.5 16.75 12.5H28.6078C29.8419 12.5 31.0483 12.8654 32.075 13.55L36.425 16.45C37.4517 17.1346 38.6581 17.5 39.8922 17.5H64.25C65.9076 17.5 67.4973 18.1585 68.6694 19.3306C69.8415 20.5027 70.5 22.0924 70.5 23.75V30" stroke="black" stroke-width="3" stroke-linecap="round" stroke-linejoin="round"/>
<path d="M75.4844 35.3984L72.95 61.25C72.95 62.9057 72.2931 64.4938 71.1233 65.6656C69.9536 66.8373 68.3667 67.4971 66.711 67.5H14.2891C12.6334 67.4971 11.0465 66.8373 9.87675 65.6656C8.70701 64.4938 8.05003 62.9057 8.05003 61.25L5.51566 35.3984C5.46066 34.7104 5.5487 34.0185 5.77424 33.3662C5.99978 32.7138 6.35793 32.1153 6.82615 31.6082C7.29436 31.101 7.8625 30.6964 8.49479 30.4196C9.12708 30.1428 9.80982 30 10.5 30H70.5157C71.2045 30.0021 71.8856 30.1466 72.516 30.4243C73.1464 30.702 73.7127 31.107 74.1792 31.6139C74.6457 32.1208 75.0025 32.7186 75.2271 33.3698C75.4517 34.0211 75.5393 34.7117 75.4844 35.3984V35.3984Z" stroke="black" stroke-width="3" stroke-linecap="round" stroke-linejoin="round"/>
</svg>
