<svg width="80" height="80" viewBox="0 0 80 80" fill="none" xmlns="http://www.w3.org/2000/svg">
<path d="M10 30V18.75C10 17.0924 10.6585 15.5027 11.8306 14.3306C13.0027 13.1585 14.5924 12.5 16.25 12.5H28.1078C29.3419 12.5 30.5483 12.8654 31.575 13.55L35.925 16.45C36.9517 17.1346 38.1581 17.5 39.3922 17.5H63.75C65.4076 17.5 66.9973 18.1585 68.1694 19.3306C69.3415 20.5027 70 22.0924 70 23.75V30" stroke="white" stroke-width="3" stroke-linecap="round" stroke-linejoin="round"/>
<path d="M74.9844 35.3984L72.45 61.25C72.45 62.9057 71.793 64.4938 70.6233 65.6656C69.4535 66.8373 67.8666 67.4971 66.2109 67.5H13.7891C12.1334 67.4971 10.5465 66.8373 9.37672 65.6656C8.20698 64.4938 7.55 62.9057 7.55 61.25L5.01563 35.3984C4.96063 34.7104 5.04867 34.0185 5.27421 33.3662C5.49975 32.7138 5.8579 32.1153 6.32612 31.6082C6.79433 31.101 7.36247 30.6964 7.99476 30.4196C8.62705 30.1428 9.30979 30 10 30H70.0156C70.7045 30.0021 71.3855 30.1466 72.016 30.4243C72.6464 30.702 73.2127 31.107 73.6792 31.6139C74.1457 32.1208 74.5025 32.7186 74.7271 33.3698C74.9517 34.0211 75.0393 34.7117 74.9844 35.3984V35.3984Z" stroke="white" stroke-width="3" stroke-linecap="round" stroke-linejoin="round"/>
</svg>
